<?xml version="1.0" encoding="UTF-8" standalone="no" ?>
<!DOCTYPE svg PUBLIC "-//W3C//DTD SVG 1.1//EN" "http://www.w3.org/Graphics/SVG/1.1/DTD/svg11.dtd">
<svg xmlns="http://www.w3.org/2000/svg" xmlns:xlink="http://www.w3.org/1999/xlink" version="1.1" width="1080" height="1080" viewBox="0 0 1080 1080" xml:space="preserve">
<desc>Created with Fabric.js 5.2.4</desc>
<defs>
</defs>
<g transform="matrix(1 0 0 1 540 540)" id="eadf9555-b52e-48dc-a8e0-7d7ff4885b31"  >
<rect style="stroke: none; stroke-width: 1; stroke-dasharray: none; stroke-linecap: butt; stroke-dashoffset: 0; stroke-linejoin: miter; stroke-miterlimit: 4; fill: rgb(255,255,255); fill-rule: nonzero; opacity: 1; visibility: hidden;" vector-effect="non-scaling-stroke"  x="-540" y="-540" rx="0" ry="0" width="1080" height="1080" />
</g>
<g transform="matrix(1 0 0 1 540 540)" id="4be89f9f-fa81-4433-b419-ed0b0dff4e22"  >
</g>
<g transform="matrix(15.43 0 0 15.43 540 540)"  >
<g style=""   >
		<g transform="matrix(1 0 0 1 11.33 0.06)"  >
<path style="stroke: none; stroke-width: 1; stroke-dasharray: none; stroke-linecap: butt; stroke-dashoffset: 0; stroke-linejoin: miter; stroke-miterlimit: 4; fill: rgb(0,0,0); fill-rule: nonzero; opacity: 1;" vector-effect="non-scaling-stroke"  transform=" translate(-46.33, -20.06)" d="M 37.2551 1.61586 C 38.1803 0.653384 39.4368 0.112671 40.7452 0.112671 C 46.6318 0.112671 52.1793 0.112674 57.6424 0.112685 C 68.6302 0.112708 74.1324 13.9329 66.3629 22.0156 L 49.4389 39.6217 C 48.662 40.43 47.3335 39.8575 47.3335 38.7144 L 47.3335 23.2076 L 49.2893 21.1729 C 50.8432 19.5564 49.7427 16.7923 47.5451 16.7923 L 22.6667 16.7923 L 37.2551 1.61586 Z" stroke-linecap="round" />
</g>
		<g transform="matrix(1 0 0 1 -11.33 -0.06)"  >
<path style="stroke: none; stroke-width: 1; stroke-dasharray: none; stroke-linecap: butt; stroke-dashoffset: 0; stroke-linejoin: miter; stroke-miterlimit: 4; fill: rgb(0,0,0); fill-rule: nonzero; opacity: 1;" vector-effect="non-scaling-stroke"  transform=" translate(-23.67, -19.94)" d="M 32.7449 38.3842 C 31.8198 39.3467 30.5633 39.8874 29.2549 39.8874 C 23.3683 39.8874 17.8208 39.8874 12.3577 39.8874 C 1.36983 39.8873 -4.13236 26.0672 3.63721 17.9844 L 20.5612 0.378369 C 21.3381 -0.429908 22.6666 0.142547 22.6666 1.28562 L 22.6667 16.7923 L 20.7108 18.8271 C 19.1569 20.4437 20.2574 23.2077 22.455 23.2077 L 47.3335 23.2076 L 32.7449 38.3842 Z" stroke-linecap="round" />
</g>
</g>
</g>
</svg>